<svg xmlns="http://www.w3.org/2000/svg" viewBox="0 0 512 512">
  <!-- App-ikonet (B-249): verket i kveldslys – samme motiv som tittelbildet på startskjermen -->
  <defs>
    <linearGradient id="sky" x1="0" y1="0" x2="0" y2="1">
      <stop offset="0" stop-color="#16233a"/>
      <stop offset="0.65" stop-color="#3a2a2a"/>
      <stop offset="1" stop-color="#8a4214"/>
    </linearGradient>
    <linearGradient id="melt" x1="0" y1="0" x2="0" y2="1">
      <stop offset="0" stop-color="#fff2a8"/>
      <stop offset="0.45" stop-color="#ffb02e"/>
      <stop offset="1" stop-color="#ff5a00"/>
    </linearGradient>
    <radialGradient id="glow" cx="0.5" cy="0.5" r="0.5">
      <stop offset="0" stop-color="#ff8a1e" stop-opacity="0.8"/>
      <stop offset="1" stop-color="#ff5a00" stop-opacity="0"/>
    </radialGradient>
  </defs>
  <rect width="512" height="512" fill="url(#sky)"/>
  <g fill="#c9d1da" opacity="0.5">
    <circle cx="332" cy="72" r="24"/>
    <circle cx="362" cy="46" r="18"/>
    <circle cx="254" cy="98" r="16"/>
    <circle cx="276" cy="74" r="12"/>
  </g>
  <g fill="#0e141c">
    <rect x="312" y="100" width="36" height="170"/>
    <rect x="240" y="126" width="26" height="140"/>
    <path d="M66 252 L178 196 L290 252 Z"/>
    <rect x="66" y="250" width="224" height="262"/>
    <path d="M290 292 L370 262 L450 292 Z"/>
    <rect x="290" y="290" width="160" height="222"/>
    <rect x="0" y="444" width="512" height="68"/>
  </g>
  <rect x="318" y="122" width="24" height="12" fill="#c0392b"/>
  <rect x="318" y="148" width="24" height="12" fill="#c0392b"/>
  <circle cx="176" cy="424" r="88" fill="url(#glow)"/>
  <rect x="128" y="340" width="96" height="104" fill="url(#melt)"/>
  <g fill="#ffcf6b">
    <rect x="312" y="322" width="22" height="16"/>
    <rect x="348" y="322" width="22" height="16"/>
    <rect x="384" y="322" width="22" height="16"/>
    <rect x="102" y="290" width="22" height="16"/>
    <rect x="232" y="290" width="22" height="16"/>
  </g>
</svg>
